<svg width="350" height="80" viewBox="0 0 350 80" fill="none" xmlns="http://www.w3.org/2000/svg">
<g clip-path="url(#clip0_621_9)">
<path d="M147.472 18.1613C148.73 18.6093 149.69 19.2813 150.352 20.1773C151.013 21.052 151.344 22.1293 151.344 23.4093C151.344 25.4147 150.544 27.004 148.944 28.1773C147.365 29.3293 145.125 29.9053 142.224 29.9053H130.256V7.50533H141.616C144.389 7.50533 146.533 8.01733 148.048 9.04133C149.584 10.0653 150.352 11.5053 150.352 13.3613C150.352 14.428 150.096 15.3667 149.584 16.1773C149.093 16.988 148.389 17.6493 147.472 18.1613ZM137.68 16.1133H140.88C142.117 16.1133 142.736 15.5693 142.736 14.4813C142.736 13.3507 142.117 12.7853 140.88 12.7853H137.68V16.1133ZM141.872 24.6253C143.109 24.6253 143.728 24.028 143.728 22.8333C143.728 21.6813 143.109 21.1053 141.872 21.1053H137.68V24.6253H141.872ZM169.845 26.0013H161.333L159.829 29.9053H152.149L161.941 7.50533H169.365L179.157 29.9053H171.349L169.845 26.0013ZM167.765 20.5613L165.589 14.9293L163.413 20.5613H167.765ZM187.175 7.47333L190.439 12.7533L193.703 7.47333H202.439L195.175 18.1613L203.111 29.9053H194.215L190.439 24.1133L186.727 29.9053H178.055L185.927 18.5133L178.535 7.47333H187.175ZM223.296 13.3613H216.736V29.9053H209.312V13.3613H202.752V7.50533H223.296V13.3613ZM240.47 26.0013H231.958L230.454 29.9053H222.774L232.566 7.50533H239.99L249.782 29.9053H241.974L240.47 26.0013ZM238.39 20.5613L236.214 14.9293L234.038 20.5613H238.39Z" fill="#8AC926"/>
<path d="M135.024 50.0333C133.904 50.0333 132.89 49.788 131.984 49.2973C131.088 48.796 130.384 48.1133 129.872 47.2493C129.36 46.3747 129.104 45.3933 129.104 44.3053C129.104 43.2173 129.36 42.2413 129.872 41.3773C130.384 40.5027 131.093 39.82 132 39.3293C132.906 38.828 133.92 38.5773 135.04 38.5773C135.914 38.5773 136.714 38.7267 137.44 39.0253C138.165 39.3133 138.784 39.7453 139.296 40.3213L138.256 41.3293C137.413 40.444 136.362 40.0013 135.104 40.0013C134.272 40.0013 133.52 40.188 132.848 40.5613C132.176 40.9347 131.648 41.452 131.264 42.1133C130.89 42.764 130.704 43.4947 130.704 44.3053C130.704 45.116 130.89 45.852 131.264 46.5133C131.648 47.164 132.176 47.676 132.848 48.0493C133.52 48.4227 134.272 48.6093 135.104 48.6093C136.352 48.6093 137.402 48.1613 138.256 47.2653L139.296 48.2733C138.784 48.8493 138.16 49.2867 137.424 49.5853C136.698 49.884 135.898 50.0333 135.024 50.0333ZM149.628 48.5133V49.9053H141.5V38.7053H149.404V40.0973H143.1V43.5373H148.716V44.8973H143.1V48.5133H149.628ZM156.509 38.7053C157.959 38.7053 159.101 39.052 159.933 39.7453C160.765 40.4387 161.181 41.3933 161.181 42.6093C161.181 43.8253 160.765 44.78 159.933 45.4733C159.101 46.1667 157.959 46.5133 156.509 46.5133H153.741V49.9053H152.141V38.7053H156.509ZM156.461 45.1213C157.474 45.1213 158.247 44.908 158.781 44.4813C159.314 44.044 159.581 43.42 159.581 42.6093C159.581 41.7987 159.314 41.18 158.781 40.7533C158.247 40.316 157.474 40.0973 156.461 40.0973H153.741V45.1213H156.461ZM170.382 44.0973C171.14 44.2787 171.71 44.604 172.094 45.0733C172.489 45.532 172.686 46.124 172.686 46.8493C172.686 47.82 172.329 48.572 171.614 49.1053C170.91 49.6387 169.881 49.9053 168.526 49.9053H163.406V38.7053H168.222C169.449 38.7053 170.404 38.956 171.086 39.4573C171.78 39.948 172.126 40.6573 172.126 41.5853C172.126 42.1933 171.972 42.7107 171.662 43.1373C171.364 43.564 170.937 43.884 170.382 44.0973ZM164.99 43.6333H168.11C168.889 43.6333 169.481 43.4787 169.886 43.1693C170.302 42.86 170.51 42.4067 170.51 41.8093C170.51 41.212 170.302 40.7587 169.886 40.4493C169.47 40.1293 168.878 39.9693 168.11 39.9693H164.99V43.6333ZM168.494 48.6413C170.212 48.6413 171.07 48.0013 171.07 46.7213C171.07 46.0813 170.852 45.612 170.414 45.3133C169.988 45.004 169.348 44.8493 168.494 44.8493H164.99V48.6413H168.494ZM175.359 38.7053H176.943V47.3453L183.567 38.7053H185.039V49.9053H183.471V41.2813L176.831 49.9053H175.359V38.7053ZM193.539 50.0333C192.419 50.0333 191.406 49.788 190.499 49.2973C189.603 48.796 188.899 48.1133 188.387 47.2493C187.875 46.3747 187.619 45.3933 187.619 44.3053C187.619 43.2173 187.875 42.2413 188.387 41.3773C188.899 40.5027 189.609 39.82 190.515 39.3293C191.422 38.828 192.435 38.5773 193.555 38.5773C194.43 38.5773 195.23 38.7267 195.955 39.0253C196.681 39.3133 197.299 39.7453 197.811 40.3213L196.771 41.3293C195.929 40.444 194.878 40.0013 193.619 40.0013C192.787 40.0013 192.035 40.188 191.363 40.5613C190.691 40.9347 190.163 41.452 189.779 42.1133C189.406 42.764 189.219 43.4947 189.219 44.3053C189.219 45.116 189.406 45.852 189.779 46.5133C190.163 47.164 190.691 47.676 191.363 48.0493C192.035 48.4227 192.787 48.6093 193.619 48.6093C194.867 48.6093 195.918 48.1613 196.771 47.2653L197.811 48.2733C197.299 48.8493 196.675 49.2867 195.939 49.5853C195.214 49.884 194.414 50.0333 193.539 50.0333ZM213.48 38.7053L208.504 47.9373C208.11 48.6733 207.646 49.2227 207.112 49.5853C206.579 49.948 205.998 50.1293 205.368 50.1293C204.878 50.1293 204.376 50.0173 203.864 49.7933L204.28 48.5133C204.675 48.652 205.027 48.7213 205.336 48.7213C206.04 48.7213 206.622 48.348 207.08 47.6013L207.336 47.2013L202.824 38.7053H204.536L208.168 45.8093L211.896 38.7053H213.48ZM224.789 38.7053V49.9053H223.221V40.0973H216.725V49.9053H215.141V38.7053H224.789ZM232.649 38.7053C234.1 38.7053 235.241 39.052 236.073 39.7453C236.905 40.4387 237.321 41.3933 237.321 42.6093C237.321 43.8253 236.905 44.78 236.073 45.4733C235.241 46.1667 234.1 46.5133 232.649 46.5133H229.881V49.9053H228.281V38.7053H232.649ZM232.601 45.1213C233.615 45.1213 234.388 44.908 234.921 44.4813C235.455 44.044 235.721 43.42 235.721 42.6093C235.721 41.7987 235.455 41.18 234.921 40.7533C234.388 40.316 233.615 40.0973 232.601 40.0973H229.881V45.1213H232.601ZM246.264 47.1053H240.312L239.08 49.9053H237.432L242.504 38.7053H244.088L249.176 49.9053H247.496L246.264 47.1053ZM245.704 45.8253L243.288 40.3373L240.872 45.8253H245.704ZM258.085 44.0973C258.843 44.2787 259.413 44.604 259.797 45.0733C260.192 45.532 260.389 46.124 260.389 46.8493C260.389 47.82 260.032 48.572 259.317 49.1053C258.613 49.6387 257.584 49.9053 256.229 49.9053H251.109V38.7053H255.925C257.152 38.7053 258.107 38.956 258.789 39.4573C259.483 39.948 259.829 40.6573 259.829 41.5853C259.829 42.1933 259.675 42.7107 259.365 43.1373C259.067 43.564 258.64 43.884 258.085 44.0973ZM252.693 43.6333H255.813C256.592 43.6333 257.184 43.4787 257.589 43.1693C258.005 42.86 258.213 42.4067 258.213 41.8093C258.213 41.212 258.005 40.7587 257.589 40.4493C257.173 40.1293 256.581 39.9693 255.813 39.9693H252.693V43.6333ZM256.197 48.6413C257.915 48.6413 258.773 48.0013 258.773 46.7213C258.773 46.0813 258.555 45.612 258.117 45.3133C257.691 45.004 257.051 44.8493 256.197 44.8493H252.693V48.6413H256.197ZM272.214 38.7053V49.9053H270.646V40.0973H265.686L265.574 43.3773C265.521 44.924 265.393 46.1773 265.19 47.1373C264.998 48.0973 264.689 48.8227 264.262 49.3133C263.836 49.7933 263.26 50.0333 262.534 50.0333C262.204 50.0333 261.868 49.9907 261.526 49.9053L261.638 48.4813C261.809 48.524 261.98 48.5453 262.15 48.5453C262.609 48.5453 262.977 48.364 263.254 48.0013C263.532 47.628 263.74 47.0733 263.878 46.3373C264.017 45.6013 264.108 44.6307 264.15 43.4253L264.326 38.7053H272.214ZM283.831 48.5133V49.9053H275.703V38.7053H283.607V40.0973H277.303V43.5373H282.919V44.8973H277.303V48.5133H283.831ZM295.976 38.7053V49.9053H294.376V44.9133H287.944V49.9053H286.344V38.7053H287.944V43.5213H294.376V38.7053H295.976ZM299.469 38.7053H301.053V47.3453L307.677 38.7053H309.149V49.9053H307.581V41.2813L300.941 49.9053H299.469V38.7053ZM320.849 38.7053V49.9053H319.281V46.6413H316.193C316.001 46.6413 315.857 46.636 315.761 46.6253L313.521 49.9053H311.825L314.305 46.3533C313.505 46.0867 312.891 45.644 312.465 45.0253C312.038 44.396 311.825 43.6333 311.825 42.7373C311.825 41.468 312.23 40.4813 313.041 39.7773C313.862 39.0627 314.966 38.7053 316.353 38.7053H320.849ZM313.441 42.7213C313.441 43.5533 313.681 44.1933 314.161 44.6413C314.651 45.0787 315.371 45.2973 316.321 45.2973H319.281V40.0973H316.417C315.457 40.0973 314.721 40.3213 314.209 40.7693C313.697 41.2173 313.441 41.868 313.441 42.7213ZM135.376 64.0653C136.08 64.2573 136.629 64.5933 137.024 65.0733C137.418 65.5427 137.616 66.108 137.616 66.7693C137.616 67.4307 137.402 68.012 136.976 68.5133C136.56 69.004 136 69.3827 135.296 69.6493C134.602 69.9053 133.845 70.0333 133.024 70.0333C132.277 70.0333 131.536 69.9213 130.8 69.6973C130.064 69.4733 129.392 69.1373 128.784 68.6893L129.344 67.5053C129.834 67.8893 130.384 68.1773 130.992 68.3693C131.6 68.5613 132.213 68.6573 132.832 68.6573C133.728 68.6573 134.48 68.4707 135.088 68.0973C135.696 67.7133 136 67.1907 136 66.5293C136 65.964 135.77 65.532 135.312 65.2333C134.853 64.924 134.208 64.7693 133.376 64.7693H130.88V63.4733H133.264C133.978 63.4733 134.533 63.3293 134.928 63.0413C135.333 62.7427 135.536 62.332 135.536 61.8093C135.536 61.2227 135.274 60.7587 134.752 60.4173C134.229 60.076 133.568 59.9053 132.768 59.9053C132.245 59.9053 131.712 59.98 131.168 60.1293C130.634 60.2787 130.128 60.5027 129.648 60.8013L129.136 59.4893C129.701 59.1693 130.298 58.9293 130.928 58.7693C131.557 58.6093 132.186 58.5293 132.816 58.5293C133.605 58.5293 134.33 58.652 134.992 58.8973C135.653 59.1427 136.176 59.5 136.56 59.9693C136.954 60.4387 137.152 60.988 137.152 61.6173C137.152 62.1827 136.992 62.6787 136.672 63.1053C136.362 63.532 135.93 63.852 135.376 64.0653ZM147.561 67.1053H141.609L140.377 69.9053H138.729L143.801 58.7053H145.385L150.473 69.9053H148.793L147.561 67.1053ZM147.001 65.8253L144.585 60.3373L142.169 65.8253H147.001ZM160.083 58.7053V69.9053H158.515V66.6413H155.427C155.235 66.6413 155.091 66.636 154.995 66.6253L152.755 69.9053H151.059L153.539 66.3533C152.739 66.0867 152.126 65.644 151.699 65.0253C151.272 64.396 151.059 63.6333 151.059 62.7373C151.059 61.468 151.464 60.4813 152.275 59.7773C153.096 59.0627 154.2 58.7053 155.587 58.7053H160.083ZM152.675 62.7213C152.675 63.5533 152.915 64.1933 153.395 64.6413C153.886 65.0787 154.606 65.2973 155.555 65.2973H158.515V60.0973H155.651C154.691 60.0973 153.955 60.3213 153.443 60.7693C152.931 61.2173 152.675 61.868 152.675 62.7213ZM170.554 64.0973C171.311 64.2787 171.882 64.604 172.266 65.0733C172.661 65.532 172.858 66.124 172.858 66.8493C172.858 67.82 172.501 68.572 171.786 69.1053C171.082 69.6387 170.053 69.9053 168.698 69.9053H163.578V58.7053H168.394C169.621 58.7053 170.575 58.956 171.258 59.4573C171.951 59.948 172.298 60.6573 172.298 61.5853C172.298 62.1933 172.143 62.7107 171.834 63.1373C171.535 63.564 171.109 63.884 170.554 64.0973ZM165.162 63.6333H168.282C169.061 63.6333 169.653 63.4787 170.058 63.1693C170.474 62.86 170.682 62.4067 170.682 61.8093C170.682 61.212 170.474 60.7587 170.058 60.4493C169.642 60.1293 169.05 59.9693 168.282 59.9693H165.162V63.6333ZM168.666 68.6413C170.383 68.6413 171.242 68.0013 171.242 66.7213C171.242 66.0813 171.023 65.612 170.586 65.3133C170.159 65.004 169.519 64.8493 168.666 64.8493H165.162V68.6413H168.666ZM179.435 64.9773H177.099V69.9053H175.531V58.7053H177.099V63.5693H179.467L182.987 58.7053H184.699L180.699 64.1293L184.891 69.9053H183.067L179.435 64.9773ZM193.655 67.1053H187.703L186.471 69.9053H184.823L189.895 58.7053H191.479L196.567 69.9053H194.887L193.655 67.1053ZM193.095 65.8253L190.679 60.3373L188.263 65.8253H193.095ZM208.884 69.9053L208.868 61.7453L204.82 68.5453H204.084L200.036 61.7933V69.9053H198.5V58.7053H199.812L204.484 66.5773L209.092 58.7053H210.404L210.42 69.9053H208.884ZM213.906 58.7053H215.49V67.3453L222.114 58.7053H223.586V69.9053H222.018V61.2813L215.378 69.9053H213.906V58.7053ZM241.007 58.7053V69.9053H239.407V64.9133H232.975V69.9053H231.375V58.7053H232.975V63.5213H239.407V58.7053H241.007ZM251.78 67.1053H245.828L244.596 69.9053H242.948L248.02 58.7053H249.604L254.692 69.9053H253.012L251.78 67.1053ZM251.22 65.8253L248.804 60.3373L246.388 65.8253H251.22ZM271.594 68.5133V72.3533H270.106V69.9053H260.89L260.874 72.3533H259.386L259.402 68.5133H259.946C260.65 68.4707 261.146 67.916 261.434 66.8493C261.722 65.772 261.898 64.2573 261.962 62.3053L262.074 58.7053H269.946V68.5133H271.594ZM263.37 62.4493C263.317 64.028 263.189 65.3347 262.986 66.3693C262.794 67.404 262.479 68.1187 262.042 68.5133H268.362V60.0973H263.45L263.37 62.4493ZM278.821 70.0333C277.691 70.0333 276.672 69.788 275.765 69.2973C274.859 68.796 274.144 68.108 273.621 67.2333C273.109 66.3587 272.853 65.3827 272.853 64.3053C272.853 63.228 273.109 62.252 273.621 61.3773C274.144 60.5027 274.859 59.82 275.765 59.3293C276.672 58.828 277.691 58.5773 278.821 58.5773C279.941 58.5773 280.955 58.828 281.861 59.3293C282.768 59.82 283.477 60.5027 283.989 61.3773C284.501 62.2413 284.757 63.2173 284.757 64.3053C284.757 65.3933 284.501 66.3747 283.989 67.2493C283.477 68.1133 282.768 68.796 281.861 69.2973C280.955 69.788 279.941 70.0333 278.821 70.0333ZM278.821 68.6093C279.643 68.6093 280.379 68.4227 281.029 68.0493C281.691 67.676 282.208 67.164 282.581 66.5133C282.965 65.852 283.157 65.116 283.157 64.3053C283.157 63.4947 282.965 62.764 282.581 62.1133C282.208 61.452 281.691 60.9347 281.029 60.5613C280.379 60.188 279.643 60.0013 278.821 60.0013C278 60.0013 277.253 60.188 276.581 60.5613C275.92 60.9347 275.397 61.452 275.013 62.1133C274.64 62.764 274.453 63.4947 274.453 64.3053C274.453 65.116 274.64 65.852 275.013 66.5133C275.397 67.164 275.92 67.676 276.581 68.0493C277.253 68.4227 278 68.6093 278.821 68.6093ZM292.352 70.0333C291.232 70.0333 290.218 69.788 289.312 69.2973C288.416 68.796 287.712 68.1133 287.2 67.2493C286.688 66.3747 286.432 65.3933 286.432 64.3053C286.432 63.2173 286.688 62.2413 287.2 61.3773C287.712 60.5027 288.421 59.82 289.328 59.3293C290.234 58.828 291.248 58.5773 292.368 58.5773C293.242 58.5773 294.042 58.7267 294.768 59.0253C295.493 59.3133 296.112 59.7453 296.624 60.3213L295.584 61.3293C294.741 60.444 293.69 60.0013 292.432 60.0013C291.6 60.0013 290.848 60.188 290.176 60.5613C289.504 60.9347 288.976 61.452 288.592 62.1133C288.218 62.764 288.032 63.4947 288.032 64.3053C288.032 65.116 288.218 65.852 288.592 66.5133C288.976 67.164 289.504 67.676 290.176 68.0493C290.848 68.4227 291.6 68.6093 292.432 68.6093C293.68 68.6093 294.73 68.1613 295.584 67.2653L296.624 68.2733C296.112 68.8493 295.488 69.2867 294.752 69.5853C294.026 69.884 293.226 70.0333 292.352 70.0333ZM306.399 60.0973H302.559V69.9053H300.991V60.0973H297.167V58.7053H306.399V60.0973ZM317.027 58.7053L312.051 67.9373C311.657 68.6733 311.193 69.2227 310.659 69.5853C310.126 69.948 309.545 70.1293 308.915 70.1293C308.425 70.1293 307.923 70.0173 307.411 69.7933L307.827 68.5133C308.222 68.652 308.574 68.7213 308.883 68.7213C309.587 68.7213 310.169 68.348 310.627 67.6013L310.883 67.2013L306.371 58.7053H308.083L311.715 65.8093L315.443 58.7053H317.027ZM328.335 58.7053V69.9053H326.767V60.0973H320.271V69.9053H318.687V58.7053H328.335Z" fill="#AFAFAF"/>
<path d="M92.459 63.0562H66.9229L62.4109 74.7682H39.3709L68.7469 7.56818H91.0189L120.395 74.7682H96.971L92.459 63.0562ZM86.2189 46.7362L79.6909 29.8402L73.1629 46.7362H86.2189Z" fill="#8AC926"/>
<path d="M68.6497 36.403C72.6656 37.2721 75.9251 38.9063 78.4281 41.3054C80.9185 43.6418 82.5445 46.6919 83.3061 50.4556C84.4992 56.3521 83.0618 61.3102 78.9938 65.33C74.9767 69.2794 68.6469 71.7707 60.0044 72.8037L24.3542 77.0649L11.0267 11.1997L44.8658 7.15499C53.127 6.16754 59.8182 6.90966 64.9393 9.38135C70.124 11.8454 73.2685 15.8062 74.3728 21.2636C75.0074 24.4 74.8033 27.2512 73.7605 29.8172C72.7812 32.3756 71.0777 34.5709 68.6497 36.403ZM38.2628 33.8674L47.795 32.7281C51.4808 32.2875 53 30.4677 52.3526 27.2685C51.6799 23.9439 49.5007 22.5018 45.8149 22.9424L36.2828 24.0818L38.2628 33.8674ZM55.8144 57.4036C59.5001 56.9631 60.9876 54.9864 60.2768 51.4736C59.5914 48.0863 57.4058 46.6129 53.7201 47.0534L41.233 48.546L43.3273 58.8962L55.8144 57.4036Z" fill="#FF3A3A"/>
</g>
<defs>
<clipPath id="clip0_621_9">
<rect width="350" height="80" fill="white"/>
</clipPath>
</defs>
</svg>
