<svg width="21" height="21" viewBox="0 0 21 21" fill="none" xmlns="http://www.w3.org/2000/svg">
<path d="M18.2396 11.5208C18.2813 11.1875 18.3125 10.8541 18.3125 10.5C18.3125 10.1458 18.2813 9.81248 18.2396 9.47915L20.4375 7.7604C20.6354 7.60415 20.6875 7.3229 20.5625 7.09373L18.4792 3.48956C18.3854 3.3229 18.2083 3.22915 18.0208 3.22915C17.9583 3.22915 17.8958 3.23956 17.8438 3.2604L15.25 4.30206C14.7083 3.8854 14.125 3.54165 13.4896 3.28123L13.0938 0.520813C13.0625 0.270813 12.8438 0.083313 12.5833 0.083313H8.41668C8.15627 0.083313 7.93752 0.270813 7.90627 0.520813L7.51043 3.28123C6.87502 3.54165 6.29168 3.89581 5.75002 4.30206L3.15627 3.2604C3.09377 3.23956 3.03127 3.22915 2.96877 3.22915C2.79168 3.22915 2.6146 3.3229 2.52085 3.48956L0.437516 7.09373C0.302099 7.3229 0.364599 7.60415 0.562516 7.7604L2.76043 9.47915C2.71877 9.81248 2.68752 10.1562 2.68752 10.5C2.68752 10.8437 2.71877 11.1875 2.76043 11.5208L0.562516 13.2396C0.364599 13.3958 0.312516 13.6771 0.437516 13.9062L2.52085 17.5104C2.6146 17.6771 2.79168 17.7708 2.97918 17.7708C3.04168 17.7708 3.10418 17.7604 3.15627 17.7396L5.75002 16.6979C6.29168 17.1146 6.87502 17.4583 7.51043 17.7187L7.90627 20.4791C7.93752 20.7291 8.15627 20.9166 8.41668 20.9166H12.5833C12.8438 20.9166 13.0625 20.7291 13.0938 20.4791L13.4896 17.7187C14.125 17.4583 14.7083 17.1041 15.25 16.6979L17.8438 17.7396C17.9063 17.7604 17.9688 17.7708 18.0313 17.7708C18.2083 17.7708 18.3854 17.6771 18.4792 17.5104L20.5625 13.9062C20.6875 13.6771 20.6354 13.3958 20.4375 13.2396L18.2396 11.5208ZM16.1771 9.73956C16.2188 10.0625 16.2292 10.2812 16.2292 10.5C16.2292 10.7187 16.2084 10.9479 16.1771 11.2604L16.0313 12.4375L16.9583 13.1666L18.0833 14.0416L17.3542 15.3021L16.0313 14.7708L14.9479 14.3333L14.0104 15.0416C13.5625 15.375 13.1354 15.625 12.7083 15.8021L11.6042 16.25L11.4375 17.4271L11.2292 18.8333H9.77085L9.57293 17.4271L9.40627 16.25L8.3021 15.8021C7.85418 15.6146 7.43752 15.375 7.02085 15.0625L6.07293 14.3333L4.96877 14.7812L3.64585 15.3125L2.91668 14.0521L4.04168 13.1771L4.96877 12.4479L4.82293 11.2708C4.79168 10.9479 4.77085 10.7083 4.77085 10.5C4.77085 10.2916 4.79168 10.0521 4.82293 9.73956L4.96877 8.56248L4.04168 7.83331L2.91668 6.95831L3.64585 5.6979L4.96877 6.22915L6.0521 6.66665L6.9896 5.95831C7.43752 5.62498 7.8646 5.37498 8.29168 5.1979L9.39585 4.74998L9.56252 3.5729L9.77085 2.16665H11.2188L11.4167 3.5729L11.5833 4.74998L12.6875 5.1979C13.1354 5.3854 13.5521 5.62498 13.9688 5.93748L14.9167 6.66665L16.0208 6.21873L17.3438 5.68748L18.0729 6.9479L16.9583 7.83331L16.0313 8.56248L16.1771 9.73956ZM10.5 6.33331C8.19793 6.33331 6.33335 8.1979 6.33335 10.5C6.33335 12.8021 8.19793 14.6666 10.5 14.6666C12.8021 14.6666 14.6667 12.8021 14.6667 10.5C14.6667 8.1979 12.8021 6.33331 10.5 6.33331ZM10.5 12.5833C9.35418 12.5833 8.41668 11.6458 8.41668 10.5C8.41668 9.35415 9.35418 8.41665 10.5 8.41665C11.6458 8.41665 12.5833 9.35415 12.5833 10.5C12.5833 11.6458 11.6458 12.5833 10.5 12.5833Z" fill="#8AC926"/>
</svg>
