<svg width="23" height="23" viewBox="0 0 23 23" fill="none" xmlns="http://www.w3.org/2000/svg">
<path d="M4.96689 11.8286L5.66107 11.9405L4.96689 11.8286ZM6.21224 9.16865L6.33603 8.47651L5.94203 8.40605L5.68029 8.70885L6.21224 9.16865ZM4.93164 12.0473L4.23747 11.9355L4.93164 12.0473ZM5.11036 15.0402L4.43438 15.2336L5.11036 15.0402ZM5.22066 15.4256L5.89665 15.2322L5.22066 15.4256ZM9.93281 19.5761L9.81469 20.2692L9.93281 19.5761ZM12.5671 19.5761L12.6853 20.2692L12.5671 19.5761ZM17.2793 15.4256L16.6033 15.2322L17.2793 15.4256ZM17.3896 15.0402L18.0656 15.2336L17.3896 15.0402ZM17.5684 12.0473L18.2625 11.9355L17.5684 12.0473ZM17.5331 11.8286L16.8389 11.9405L17.5331 11.8286ZM16.2878 9.16865L16.8197 8.70885L16.5579 8.40605L16.164 8.47651L16.2878 9.16865ZM16.4167 9.14528L16.2898 8.4537L16.4167 9.14528ZM6.08323 9.14528L6.21019 8.4537L6.08323 9.14528ZM8.4375 5.54297H7.73438V6.24609H8.4375V5.54297ZM9.26126 3.61223L9.75103 4.11672L9.26126 3.61223ZM10.1737 3.02034L10.4361 3.6727L10.1737 3.02034ZM12.3263 3.02034L12.0639 3.6727L12.3263 3.02034ZM13.8484 4.49807L14.4952 4.22213L13.8484 4.49807ZM14.0625 5.54297V6.24609H14.7656V5.54297H14.0625ZM10.0781 11.914C10.0781 11.5257 9.76331 11.2109 9.375 11.2109C8.98668 11.2109 8.67188 11.5257 8.67188 11.914H10.0781ZM8.67188 15.5547C8.67188 15.943 8.98668 16.2578 9.375 16.2578C9.76331 16.2578 10.0781 15.943 10.0781 15.5547H8.67188ZM13.8281 11.914C13.8281 11.5257 13.5133 11.2109 13.125 11.2109C12.7367 11.2109 12.4219 11.5257 12.4219 11.914H13.8281ZM12.4219 15.5547C12.4219 15.943 12.7367 16.2578 13.125 16.2578C13.5133 16.2578 13.8281 15.943 13.8281 15.5547H12.4219ZM5.66107 11.9405C5.80117 11.0709 6.18331 10.2773 6.7442 9.62841L5.68029 8.70885C4.95471 9.54825 4.45574 10.5809 4.27272 11.7168L5.66107 11.9405ZM5.62582 12.1592L5.66107 11.9405L4.27272 11.7168L4.23747 11.9355L5.62582 12.1592ZM5.78635 14.8467C5.53601 13.9719 5.48136 13.0558 5.62582 12.1592L4.23747 11.9355C4.06013 13.0361 4.12734 14.1608 4.43438 15.2336L5.78635 14.8467ZM5.89665 15.2322L5.78635 14.8467L4.43438 15.2336L4.54467 15.6191L5.89665 15.2322ZM10.051 18.8829C8.04481 18.5409 6.43493 17.1131 5.89665 15.2322L4.54467 15.6191C5.23679 18.0376 7.29376 19.8395 9.81469 20.2692L10.051 18.8829ZM12.449 18.8829C11.6558 19.0182 10.8442 19.0182 10.051 18.8829L9.81469 20.2692C10.7643 20.4311 11.7356 20.4311 12.6853 20.2692L12.449 18.8829ZM16.6033 15.2322C16.0651 17.1131 14.4551 18.5409 12.449 18.8829L12.6853 20.2692C15.2063 19.8395 17.2632 18.0376 17.9553 15.6191L16.6033 15.2322ZM16.7137 14.8467L16.6033 15.2322L17.9553 15.6191L18.0656 15.2336L16.7137 14.8467ZM16.8742 12.1592C17.0186 13.0558 16.964 13.9719 16.7137 14.8467L18.0656 15.2336C18.3727 14.1608 18.4399 13.0361 18.2625 11.9355L16.8742 12.1592ZM16.8389 11.9405L16.8742 12.1592L18.2625 11.9355L18.2273 11.7168L16.8389 11.9405ZM15.7558 9.62841C16.3167 10.2773 16.6988 11.0709 16.8389 11.9405L18.2273 11.7168C18.0442 10.5809 17.5453 9.54825 16.8197 8.70885L15.7558 9.62841ZM16.164 8.47651C12.9154 9.05747 9.58462 9.05747 6.33603 8.47651L6.08846 9.86081C9.50081 10.471 12.9992 10.471 16.4115 9.86081L16.164 8.47651ZM6.5723 6.24609H15.9277V4.83984H6.5723V6.24609ZM17.1094 7.3728V7.51001H18.5156V7.3728H17.1094ZM5.39062 7.51001V7.3728H3.98438V7.51001H5.39062ZM16.2898 8.4537C12.9595 9.06507 9.54047 9.06507 6.21019 8.4537L5.95628 9.83681C9.4545 10.479 13.0455 10.479 16.5437 9.83681L16.2898 8.4537ZM3.98438 7.51001C3.98438 8.6637 4.82732 9.62963 5.95628 9.83681L6.21019 8.4537C5.71999 8.36372 5.39062 7.95611 5.39062 7.51001H3.98438ZM17.1094 7.51001C17.1094 7.95611 16.78 8.36372 16.2898 8.4537L16.5437 9.83681C17.6727 9.62963 18.5156 8.66371 18.5156 7.51001H17.1094ZM15.9277 6.24609C16.6001 6.24609 17.1094 6.77002 17.1094 7.3728H18.5156C18.5156 5.95442 17.3372 4.83984 15.9277 4.83984V6.24609ZM6.5723 4.83984C5.16279 4.83984 3.98438 5.95442 3.98438 7.3728H5.39062C5.39062 6.77002 5.89991 6.24609 6.5723 6.24609V4.83984ZM8.00487 4.22213C7.82648 4.64024 7.73438 5.08912 7.73438 5.54297H9.14062C9.14062 5.27967 9.19402 5.01844 9.29831 4.77399L8.00487 4.22213ZM8.77149 3.10775C8.44409 3.42561 8.18323 3.80408 8.00487 4.22213L9.29831 4.77399C9.40266 4.52949 9.55613 4.30597 9.75103 4.11672L8.77149 3.10775ZM9.91134 2.36799C9.48637 2.5389 9.09885 2.78994 8.77149 3.10775L9.75103 4.11672C9.94603 3.92744 10.1786 3.77622 10.4361 3.6727L9.91134 2.36799ZM11.25 2.10938C10.7912 2.10938 10.3363 2.19709 9.91134 2.36799L10.4361 3.6727C10.6935 3.56917 10.9702 3.51562 11.25 3.51562V2.10938ZM12.5887 2.36799C12.1637 2.19709 11.7088 2.10938 11.25 2.10938V3.51562C11.5298 3.51562 11.8065 3.56917 12.0639 3.6727L12.5887 2.36799ZM13.7285 3.10775C13.4012 2.78994 13.0136 2.5389 12.5887 2.36799L12.0639 3.6727C12.3214 3.77622 12.554 3.92744 12.749 4.11672L13.7285 3.10775ZM14.4952 4.22213C14.3168 3.80408 14.0559 3.42561 13.7285 3.10775L12.749 4.11672C12.9439 4.30597 13.0973 4.5295 13.2017 4.77399L14.4952 4.22213ZM14.7656 5.54297C14.7656 5.08912 14.6736 4.64025 14.4952 4.22213L13.2017 4.77399C13.306 5.01844 13.3594 5.27967 13.3594 5.54297H14.7656ZM8.4375 6.24609H14.0625V4.83984H8.4375V6.24609ZM8.67188 11.914V15.5547H10.0781V11.914H8.67188ZM12.4219 11.914V15.5547H13.8281V11.914H12.4219Z" fill="white"/>
</svg>
